<svg width="64" height="64" viewBox="0 0 64 64" fill="none" xmlns="http://www.w3.org/2000/svg">
<path d="M20 42.6666C19.6464 42.6666 19.3072 42.8071 19.0572 43.0571C18.8071 43.3072 18.6667 43.6463 18.6667 44C18.6667 44.3536 18.8071 44.6927 19.0572 44.9428C19.3072 45.1928 19.6464 45.3333 20 45.3333H44C44.3536 45.3333 44.6928 45.1928 44.9428 44.9428C45.1929 44.6927 45.3333 44.3536 45.3333 44C45.3333 43.6463 45.1929 43.3072 44.9428 43.0571C44.6928 42.8071 44.3536 42.6666 44 42.6666H20ZM18.6667 49.3333C18.6667 48.9797 18.8071 48.6405 19.0572 48.3905C19.3072 48.1404 19.6464 48 20 48H36C36.3536 48 36.6928 48.1404 36.9428 48.3905C37.1929 48.6405 37.3333 48.9797 37.3333 49.3333C37.3333 49.6869 37.1929 50.0261 36.9428 50.2761C36.6928 50.5262 36.3536 50.6666 36 50.6666H20C19.6464 50.6666 19.3072 50.5262 19.0572 50.2761C18.8071 50.0261 18.6667 49.6869 18.6667 49.3333Z" fill="#B9B9C4"/>
<path fill-rule="evenodd" clip-rule="evenodd" d="M27.8973 20.82C27.7961 20.577 27.6252 20.3695 27.4062 20.2236C27.1872 20.0776 26.9299 19.9997 26.6667 19.9997C26.4035 19.9997 26.1462 20.0776 25.9272 20.2236C25.7082 20.3695 25.5373 20.577 25.436 20.82L20.4467 32.7933L20.424 32.8493L18.7693 36.82C18.6332 37.1464 18.6323 37.5135 18.7668 37.8405C18.9013 38.1676 19.1603 38.4278 19.4867 38.564C19.8131 38.7001 20.1802 38.701 20.5072 38.5665C20.8343 38.432 21.0945 38.173 21.2307 37.8466L22.556 34.6666H30.7773L32.1027 37.8466C32.2388 38.173 32.499 38.432 32.8261 38.5665C33.1532 38.701 33.5203 38.7001 33.8467 38.564C34.1731 38.4278 34.432 38.1676 34.5665 37.8405C34.7011 37.5135 34.7001 37.1464 34.564 36.82L32.9093 32.8493L32.8867 32.7933L27.8973 20.82ZM26.6667 24.8L29.6667 32H23.6667L26.6667 24.8Z" fill="#575F6E"/>
<path d="M40 28C40.3536 28 40.6928 28.1405 40.9428 28.3905C41.1929 28.6406 41.3333 28.9797 41.3333 29.3333V32H44C44.3536 32 44.6928 32.1405 44.9428 32.3905C45.1929 32.6406 45.3333 32.9797 45.3333 33.3333C45.3333 33.687 45.1929 34.0261 44.9428 34.2761C44.6928 34.5262 44.3536 34.6667 44 34.6667H41.3333V37.3333C41.3333 37.687 41.1929 38.0261 40.9428 38.2761C40.6928 38.5262 40.3536 38.6667 40 38.6667C39.6464 38.6667 39.3072 38.5262 39.0572 38.2761C38.8071 38.0261 38.6667 37.687 38.6667 37.3333V34.6667H36C35.6464 34.6667 35.3072 34.5262 35.0572 34.2761C34.8071 34.0261 34.6667 33.687 34.6667 33.3333C34.6667 32.9797 34.8071 32.6406 35.0572 32.3905C35.3072 32.1405 35.6464 32 36 32H38.6667V29.3333C38.6667 28.9797 38.8071 28.6406 39.0572 28.3905C39.3072 28.1405 39.6464 28 40 28Z" fill="#B9B9C4"/>
<path fill-rule="evenodd" clip-rule="evenodd" d="M50.6667 20L37.3333 5.33331H18.6667C17.2522 5.33331 15.8956 5.89522 14.8954 6.89541C13.8952 7.8956 13.3333 9.25216 13.3333 10.6666V53.3333C13.3333 54.7478 13.8952 56.1044 14.8954 57.1046C15.8956 58.1047 17.2522 58.6667 18.6667 58.6667H45.3333C46.7478 58.6667 48.1044 58.1047 49.1046 57.1046C50.1048 56.1044 50.6667 54.7478 50.6667 53.3333V20ZM36 20C36 20.3536 36.1405 20.6927 36.3905 20.9428C36.6406 21.1928 36.9797 21.3333 37.3333 21.3333H48V53.3333C48 54.0406 47.7191 54.7188 47.219 55.2189C46.7189 55.719 46.0406 56 45.3333 56H18.6667C17.9594 56 17.2811 55.719 16.7811 55.2189C16.281 54.7188 16 54.0406 16 53.3333V10.6666C16 9.9594 16.281 9.28113 16.7811 8.78103C17.2811 8.28093 17.9594 7.99998 18.6667 7.99998H36V20ZM45.8507 18.6666L38.6667 10.764V18.6666H45.8507Z" fill="#575F6E"/>
</svg>
