<svg width="64" height="64" viewBox="0 0 64 64" fill="none" xmlns="http://www.w3.org/2000/svg">
<path d="M56.9476 13.1551L32.9476 5.15512C32.333 4.94764 31.6672 4.94764 31.0526 5.15512L7.05262 13.1551C6.47995 13.3448 5.97777 13.7027 5.61162 14.1821C5.24547 14.6615 5.03236 15.2402 5.00012 15.8426C4.99736 15.8951 4.99736 15.9477 5.00012 16.0001V36.0001C5.00012 36.7958 5.31619 37.5588 5.8788 38.1214C6.4414 38.684 7.20447 39.0001 8.00012 39.0001C8.79576 39.0001 9.55883 38.684 10.1214 38.1214C10.684 37.5588 11.0001 36.7958 11.0001 36.0001V20.1626L16.9276 22.1376C15.088 25.6589 14.5413 29.7137 15.3827 33.5964C16.2241 37.4791 18.4003 40.9438 21.5326 43.3876C17.4337 45.4089 13.9647 48.5114 11.5001 52.3601C11.2782 52.69 11.124 53.0607 11.0466 53.4506C10.9692 53.8406 10.97 54.2421 11.0491 54.6317C11.1282 55.0213 11.284 55.3913 11.5074 55.7202C11.7307 56.0492 12.0172 56.3304 12.3503 56.5476C12.6833 56.7648 13.0561 56.9136 13.4471 56.9854C13.8382 57.0573 14.2396 57.0507 14.628 56.966C15.0165 56.8813 15.3843 56.7203 15.7099 56.4922C16.0356 56.2642 16.3127 55.9737 16.5251 55.6376C20.0926 50.1476 25.7501 47.0001 32.0001 47.0001C38.2501 47.0001 43.9076 50.1476 47.4876 55.6376C47.7 55.9737 47.9771 56.2642 48.3028 56.4922C48.6285 56.7203 48.9962 56.8813 49.3847 56.966C49.7731 57.0507 50.1745 57.0573 50.5656 56.9854C50.9566 56.9136 51.3295 56.7648 51.6625 56.5476C51.9955 56.3304 52.282 56.0492 52.5054 55.7202C52.7287 55.3913 52.8845 55.0213 52.9636 54.6317C53.0427 54.2421 53.0436 53.8406 52.9661 53.4506C52.8887 53.0607 52.7346 52.69 52.5126 52.3601C50.0457 48.5069 46.5721 45.4016 42.4676 43.3801C45.5999 40.9363 47.7761 37.4716 48.6175 33.5889C49.4589 29.7062 48.9122 25.6514 47.0726 22.1301L56.9476 18.8376C57.5442 18.638 58.0629 18.2559 58.4305 17.7454C58.798 17.2349 58.9958 16.6217 58.9958 15.9926C58.9958 15.3635 58.798 14.7504 58.4305 14.2398C58.0629 13.7293 57.5442 13.3472 56.9476 13.1476V13.1551ZM32.0001 11.1551L46.5126 16.0001L32.0001 20.8376L17.5001 16.0001L32.0001 11.1551ZM43.0001 30.0001C43.0004 31.7087 42.6027 33.3939 41.8386 34.922C41.0744 36.4502 39.9647 37.7793 38.5976 38.8041C37.2304 39.8289 35.6433 40.521 33.9621 40.8258C32.281 41.1305 30.5519 41.0395 28.912 40.5598C27.2721 40.0802 25.7666 39.2251 24.5146 38.0624C23.2626 36.8997 22.2987 35.4613 21.6993 33.8614C21.0999 32.2614 20.8814 30.5438 21.0612 28.8447C21.241 27.1456 21.8141 25.5117 22.7351 24.0726L31.0526 26.8451C31.6674 27.0517 32.3328 27.0517 32.9476 26.8451L41.2651 24.0726C42.3996 25.8413 43.0018 27.8988 43.0001 30.0001Z" fill="#575F6E"/>
</svg>
