<svg width="64" height="64" viewBox="0 0 64 64" fill="none" xmlns="http://www.w3.org/2000/svg">
<path d="M64 48V52H43.8125L50.4062 58.5938L47.5938 61.4062L36.1875 50L47.5938 38.5938L50.4062 41.4062L43.8125 48H64ZM40.375 34.4688L37.625 37.375C35.7708 35.625 33.6771 34.2917 31.3438 33.375C29.0104 32.4583 26.5625 32 24 32C22.1667 32 20.3958 32.2396 18.6875 32.7188C16.9792 33.1979 15.3854 33.8646 13.9062 34.7188C12.4271 35.5729 11.0833 36.6146 9.875 37.8438C8.66667 39.0729 7.625 40.4271 6.75 41.9062C5.875 43.3854 5.19792 44.9792 4.71875 46.6875C4.23958 48.3958 4 50.1667 4 52H0C0 49.5625 0.364583 47.1771 1.09375 44.8438C1.82292 42.5104 2.875 40.3542 4.25 38.375C5.625 36.3958 7.26042 34.6354 9.15625 33.0938C11.0521 31.5521 13.1667 30.375 15.5 29.5625C14.3333 28.8125 13.2917 27.9479 12.375 26.9688C11.4583 25.9896 10.6667 24.9167 10 23.75C9.33333 22.5833 8.84375 21.3542 8.53125 20.0625C8.21875 18.7708 8.04167 17.4167 8 16C8 13.7917 8.41667 11.7188 9.25 9.78125C10.0833 7.84375 11.2188 6.14583 12.6562 4.6875C14.0938 3.22917 15.7917 2.08333 17.75 1.25C19.7083 0.416667 21.7917 0 24 0C26.2083 0 28.2812 0.416667 30.2188 1.25C32.1562 2.08333 33.8542 3.21875 35.3125 4.65625C36.7708 6.09375 37.9167 7.79167 38.75 9.75C39.5833 11.7083 40 13.7917 40 16C40 18.8542 39.3438 21.4375 38.0312 23.75C36.7188 26.0625 34.875 28 32.5 29.5625C33.9583 30.1042 35.3438 30.7917 36.6562 31.625C37.9688 32.4583 39.2083 33.4062 40.375 34.4688ZM12 16C12 17.6667 12.3125 19.2188 12.9375 20.6562C13.5625 22.0938 14.4167 23.3646 15.5 24.4688C16.5833 25.5729 17.8542 26.4375 19.3125 27.0625C20.7708 27.6875 22.3333 28 24 28C25.6458 28 27.1979 27.6875 28.6562 27.0625C30.1146 26.4375 31.3854 25.5833 32.4688 24.5C33.5521 23.4167 34.4167 22.1458 35.0625 20.6875C35.7083 19.2292 36.0208 17.6667 36 16C36 14.3542 35.6875 12.8021 35.0625 11.3438C34.4375 9.88542 33.5833 8.61458 32.5 7.53125C31.4167 6.44792 30.1354 5.58333 28.6562 4.9375C27.1771 4.29167 25.625 3.97917 24 4C22.3333 4 20.7812 4.3125 19.3438 4.9375C17.9062 5.5625 16.6354 6.41667 15.5312 7.5C14.4271 8.58333 13.5625 9.86458 12.9375 11.3438C12.3125 12.8229 12 14.375 12 16Z" fill="#575F6E"/>
</svg>
