<svg width="64" height="64" viewBox="0 0 64 64" fill="none" xmlns="http://www.w3.org/2000/svg">
<path d="M29.3333 40H45.3333V45.3333H29.3333V40ZM24 18.6667H18.6667V24H24V18.6667ZM29.3333 34.6667H45.3333V29.3333H29.3333V34.6667ZM29.3333 24H45.3333V18.6667H29.3333V24ZM24 29.3333H18.6667V34.6667H24V29.3333ZM56 13.3333V50.6667C56 53.6 53.6 56 50.6667 56H13.3333C10.4 56 8 53.6 8 50.6667V13.3333C8 10.4 10.4 8 13.3333 8H50.6667C53.6 8 56 10.4 56 13.3333ZM50.6667 13.3333H13.3333V50.6667H50.6667V13.3333ZM24 40H18.6667V45.3333H24V40Z" fill="#575F6E"/>
</svg>
